<svg width="64" height="64" viewBox="0 0 64 64" fill="none" xmlns="http://www.w3.org/2000/svg">
<rect x="12" y="2" width="40" height="40" rx="12" fill="#FF6B35"/>
<g filter="url(#filter0_dd_3952_1372)">
<rect x="12" y="2" width="40" height="40" rx="12" fill="white" fill-opacity="0.01" shape-rendering="crispEdges"/>
</g>
<path d="M37 31C37.5519 31 38 30.5519 38 30V24.65C38 24.193 38.316 23.806 38.727 23.609C40.4839 22.7709 41.3823 20.7898 40.8554 18.916C40.3285 17.0421 38.5292 15.8196 36.593 16.02C35.8036 14.185 33.9976 12.9959 32 12.9959C30.0024 12.9959 28.1964 14.185 27.407 16.02C25.4718 15.821 23.674 17.0433 23.1473 18.9161C22.6206 20.7889 23.5177 22.7691 25.273 23.608C25.684 23.806 26 24.193 26 24.649V30C26 30.5519 26.4481 31 27 31H37M26 27H38" stroke="white" stroke-width="2" stroke-linecap="round" stroke-linejoin="round"/>
<defs>
<filter id="filter0_dd_3952_1372" x="0" y="0" width="64" height="64" filterUnits="userSpaceOnUse" color-interpolation-filters="sRGB">
<feFlood flood-opacity="0" result="BackgroundImageFix"/>
<feColorMatrix in="SourceAlpha" type="matrix" values="0 0 0 0 0 0 0 0 0 0 0 0 0 0 0 0 0 0 127 0" result="hardAlpha"/>
<feMorphology radius="4" operator="erode" in="SourceAlpha" result="effect1_dropShadow_3952_1372"/>
<feOffset dy="4"/>
<feGaussianBlur stdDeviation="3"/>
<feComposite in2="hardAlpha" operator="out"/>
<feColorMatrix type="matrix" values="0 0 0 0 1 0 0 0 0 0.419565 0 0 0 0 0.207782 0 0 0 0.2 0"/>
<feBlend mode="normal" in2="BackgroundImageFix" result="effect1_dropShadow_3952_1372"/>
<feColorMatrix in="SourceAlpha" type="matrix" values="0 0 0 0 0 0 0 0 0 0 0 0 0 0 0 0 0 0 127 0" result="hardAlpha"/>
<feMorphology radius="3" operator="erode" in="SourceAlpha" result="effect2_dropShadow_3952_1372"/>
<feOffset dy="10"/>
<feGaussianBlur stdDeviation="7.5"/>
<feComposite in2="hardAlpha" operator="out"/>
<feColorMatrix type="matrix" values="0 0 0 0 1 0 0 0 0 0.419565 0 0 0 0 0.207782 0 0 0 0.2 0"/>
<feBlend mode="normal" in2="effect1_dropShadow_3952_1372" result="effect2_dropShadow_3952_1372"/>
<feBlend mode="normal" in="SourceGraphic" in2="effect2_dropShadow_3952_1372" result="shape"/>
</filter>
</defs>
</svg>
